<svg xmlns="http://www.w3.org/2000/svg" version="1.1" xmlns:xlink="http://www.w3.org/1999/xlink" xmlns:svgjs="http://svgjs.dev/svgjs" width="1500" height="1500" viewBox="0 0 1500 1500"><rect width="1500" height="1500" fill="#000000"></rect><g transform="matrix(0.6666666666666666,0,0,0.6666666666666666,249.39393939393938,616.4220210314385)"><svg viewBox="0 0 396 105" data-background-color="#000000" preserveAspectRatio="xMidYMid meet" height="397" width="1500" xmlns="http://www.w3.org/2000/svg" xmlns:xlink="http://www.w3.org/1999/xlink"><g id="tight-bounds" transform="matrix(1,0,0,1,0.2400000000000091,0.49378258828326693)"><svg viewBox="0 0 395.52 104.01243482343345" height="104.01243482343345" width="395.52"><g><svg viewBox="0 0 561.6695868129509 147.70585884578998" height="104.01243482343345" width="395.52"><g transform="matrix(1,0,0,1,0,20.413761967833494)"><svg viewBox="0 0 395.52 106.87833491012299" height="106.87833491012299" width="395.52"><g id="textblocktransform"><svg viewBox="0 0 395.52 106.87833491012299" height="106.87833491012299" width="395.52" id="textblock"><g><svg viewBox="0 0 395.52 106.87833491012299" height="106.87833491012299" width="395.52"><g transform="matrix(1,0,0,1,0,0)"><svg width="395.52" viewBox="1.71 -40.16 206.42 55.79" height="106.87833491012299" data-palette-color="#ffffff"><path d="M19.8-12.87L5.64-12.87Q5.22-12.87 5.22-11.08L5.22-11.08Q5.22-7.3 7.47-4.74 9.72-2.17 13.05-2.17 16.38-2.17 19.46-5.05L19.46-5.05Q19.51-5.1 19.58-5.1L19.58-5.1 19.7-5.1Q19.85-5.1 19.98-4.87 20.12-4.64 20.24-4.57L20.24-4.57Q17.41-1.12 13.57 0.2L13.57 0.2Q12.26 0.66 10.6 0.66 8.94 0.66 7.23-0.26 5.52-1.17 4.3-2.66L4.3-2.66Q1.71-5.76 1.71-10.39 1.71-15.01 4.53-18.82 7.35-22.63 12.28-22.63L12.28-22.63Q15.82-22.63 18.07-19.47 20.31-16.31 20.31-13.92L20.31-13.92Q20.31-12.87 19.8-12.87L19.8-12.87ZM5.91-15.5L5.91-15.21Q5.91-14.75 6.35-14.75L6.35-14.75 15.55-14.75Q16.19-14.75 16.19-15.5L16.19-15.5Q16.19-17.26 14.61-19.1 13.04-20.95 11.16-20.95L11.16-20.95Q9.33-20.95 7.82-19.29 6.32-17.63 5.91-15.5L5.91-15.5ZM39.5-4.03Q39.5-3.39 40.1-3.02 40.7-2.64 41.48-2.64 42.26-2.64 42.78-3.04 43.31-3.44 43.5-3.44 43.7-3.44 43.7-2.92 43.7-2.39 43.21-2.03L43.21-2.03Q39.55 0.66 38.25 0.66L38.25 0.66Q36.69 0.66 35.72-2.59L35.72-2.59Q35.64-2.83 35.59-2.81L35.59-2.81Q32.57-0.54 31.78-0.07L31.78-0.07Q29.78 1.07 27.77 0.29 25.75-0.49 24.85-2.29L24.85-2.29Q24.41-3.22 24.41-4.27L24.41-4.27Q24.41-6.35 25.95-7.57 27.49-8.79 31.81-9.91L31.81-9.91Q33.27-10.3 34.42-10.91 35.57-11.52 35.63-11.69 35.69-11.87 35.69-12.01L35.69-12.01 35.69-16.7Q35.69-19.46 33.54-20.58L33.54-20.58Q32.83-20.95 31.85-20.95 30.86-20.95 29.84-20.17 28.83-19.38 28.83-17.94L28.83-17.94 28.95-16.99Q28.81-16.7 27.19-16.02 25.58-15.33 25.34-15.28L25.34-15.28Q24.95-15.28 24.95-16.22 24.95-17.16 25.51-18.31 26.07-19.46 27.1-20.41L27.1-20.41Q29.49-22.63 32.57-22.63 35.64-22.63 37.57-20.94 39.5-19.24 39.5-16.89L39.5-16.89 39.5-4.03ZM28.24-4.74Q28.24-3.56 29.15-2.7 30.05-1.83 31.21-1.83 32.37-1.83 34.03-2.82 35.69-3.81 35.69-4.86L35.69-4.86 35.69-9.81Q35.69-10.08 35.57-10.08 35.45-10.08 35.4-10.06L35.4-10.06 29.73-7.42Q28.85-6.79 28.55-6.35 28.24-5.91 28.24-4.74ZM57.86-18.95L57.86-16.7Q57.86-16.16 57.45-16.16 57.05-16.16 56.83-16.75L56.83-16.75Q56.25-18.36 55.09-19.6 53.93-20.85 52.22-20.85L52.22-20.85Q49.97-20.85 49.19-18.6L49.19-18.6Q48.95-17.85 48.95-17.04 48.95-16.24 49.97-15.25 51-14.26 53.34-12.89 55.68-11.52 56.76-10.57L56.76-10.57Q59.2-8.4 59.2-5.54 59.2-2.69 57.1-1.01 55 0.66 52.22 0.66L52.22 0.66Q50.73 0.66 49.52 0.26 48.31-0.15 48.13-0.15 47.94-0.15 47.54 0.26 47.14 0.66 46.89 0.66L46.89 0.66 46.48 0.66Q46.33 0.66 46.11-1.98 45.89-4.61 45.89-5.1 45.89-5.59 45.98-5.64 46.06-5.69 46.26-5.69 46.45-5.69 46.59-5.57 46.72-5.44 46.82-5.26 46.92-5.08 46.98-4.88 47.04-4.69 47.29-4.15L47.29-4.15Q48.95-0.61 52.41-0.61L52.41-0.61Q53.95-0.61 54.88-1.75 55.81-2.88 55.81-4.27 55.81-5.66 55.07-6.62 54.34-7.57 53.25-8.35 52.17-9.13 50.9-9.86L50.9-9.86Q45.97-12.74 45.97-16.24L45.97-16.24Q45.97-18.85 48.21-20.74 50.46-22.63 52.83-22.63 55.2-22.63 56.33-22.12 57.47-21.61 57.66-21.25 57.86-20.9 57.86-18.95L57.86-18.95ZM77.31-21.97L86.56-21.97Q86.83-21.9 86.83-21.63 86.83-21.36 86.78-21.28 86.74-21.19 86.55-21.13 86.37-21.07 86.04-21.02 85.71-20.97 85-20.84 84.29-20.7 83.73-19.85 83.17-18.99 82.54-17.48L82.54-17.48 71.06 10.96 69.47 14.33Q68.86 15.63 66.91 15.63L66.91 15.63Q66.06 15.63 65.54 15.06 65.03 14.5 65.03 13.73 65.03 12.96 65.41 12.61 65.79 12.26 66.3 12.04 66.81 11.82 67.36 11.63 67.91 11.45 68.6 10.8 69.28 10.16 69.4 9.84L69.4 9.84Q73.5 0.66 73.5 0.24 73.5-0.17 73.01-0.78L73.01-0.78 64.96-17.6Q64.06-20.07 61.86-20.78L61.86-20.78Q61.69-20.83 61.44-20.85L61.44-20.85Q60.42-20.95 60.42-21.46 60.42-21.97 61-21.97L61-21.97 71.87-21.97Q72.06-21.97 72.06-21.59 72.06-21.22 71.72-21.08 71.38-20.95 70.21-20.95L70.21-20.95Q68.33-20.95 68.33-19.48L68.33-19.48 68.55-18.9 74.87-5.35Q75.36-4.1 75.85-5.42L75.85-5.42Q75.9-5.54 76.46-7.01L76.46-7.01Q79.78-15.43 80.18-16.75 80.58-18.07 80.58-18.73 80.58-19.38 79.89-20.12 79.19-20.85 77.98-20.85 76.77-20.85 76.77-21.56L76.77-21.56Q76.77-21.97 77.31-21.97L77.31-21.97ZM106.68-33.96L108.05-34.13Q108.29-34.13 108.29-33.59L108.29-33.59 108.93-28.39Q109.02-27.91 109.02-27.77 109.02-27.64 108.64-27.64 108.27-27.64 108.17-27.73 108.07-27.83 107.97-28.06 107.88-28.3 107.74-28.59 107.61-28.88 107.46-29.17L107.46-29.17Q106.95-30.3 105.85-31.4L105.85-31.4Q103.16-33.98 99.79-33.98L99.79-33.98Q97.77-33.98 95.96-32.67 94.16-31.35 94.16-29.55 94.16-27.76 94.83-26.44 95.5-25.12 96.6-24 97.7-22.88 99.11-21.85 100.53-20.83 101.99-19.78L101.99-19.78Q105.87-17.07 107.51-15.14L107.51-15.14Q110.07-12.16 110.29-8.45L110.29-8.45Q110.29-4.3 107.11-1.82 103.92 0.66 99.7 0.66L99.7 0.66Q96.99 0.66 95.39 0.11 93.79-0.44 93.18-0.68 92.57-0.93 92.29-0.93 92.01-0.93 91.93-0.9L91.93-0.9 90.74-0.66Q90.42-0.66 90.35-1.17L90.35-1.17Q89.64-7.23 89.64-7.6 89.64-7.98 89.7-8.12 89.76-8.25 90.03-8.25L90.03-8.25Q90.71-8.25 91.27-6.3L91.27-6.3Q93.84-0.81 99.79-0.81L99.79-0.81Q102.53-0.81 104.47-2.47 106.41-4.13 106.41-6.79L106.41-6.79Q106.41-11.04 101.33-14.7L101.33-14.7Q99.89-15.72 97.18-17.55 94.47-19.38 92.86-21.22L92.86-21.22Q90.35-24.05 90.35-27.53 90.35-31.01 93.12-33.23 95.89-35.45 99.48-35.45L99.48-35.45Q101.33-35.45 103.57-34.81 105.8-34.18 106.68-33.96L106.68-33.96ZM127.48-18.77L120.13-18.77Q119.98-18.77 119.98-18.55L119.98-18.55 119.98-5.08Q119.98-3.61 120.63-2.78 121.28-1.95 122.28-1.95 123.28-1.95 124.02-2.28 124.77-2.61 125.32-3 125.87-3.39 126.31-3.72 126.75-4.05 127.09-4.05 127.43-4.05 127.43-3.88L127.43-3.88Q127.43-3.3 127.31-3.13L127.31-3.13Q124.38 0.66 121.65 0.66 118.93 0.66 117.55-1.06 116.17-2.78 116.17-5.18L116.17-5.18 116.17-18.77 114.34-18.77Q113.66-18.77 113.62-19.21 113.59-19.65 113.76-19.78L113.76-19.78Q115.05-20.61 117.32-22.75L117.32-22.75Q117.57-23.02 117.98-23.56 118.4-24.1 119.19-25.02 119.98-25.95 120.4-25.95 120.81-25.95 120.81-25.61L120.81-25.61Q120.81-25.56 119.98-22.41L119.98-22.41Q119.98-21.97 120.37-21.95L120.37-21.95 126.6-21.95Q127.67-21.95 127.67-18.92L127.67-18.92Q127.67-18.77 127.48-18.77L127.48-18.77ZM146.69 0.05L146.69-2.15Q146.57-2.56 146.37-2.43 146.18-2.29 144.78-1.59L144.78-1.59Q140.22 0.68 137.17 0.68 134.12 0.68 132.77-1.27L132.77-1.27Q132.28-2 132.28-3.08L132.28-3.08 132.28-17.97Q132.21-18.68 131.65-19.19L131.65-19.19Q130.89-19.82 130.08-19.87 129.26-19.92 129.26-20.37 129.26-20.83 129.65-20.92L129.65-20.92 135.24-22.53Q135.53-22.63 135.81-22.63 136.09-22.63 136.09-22.22L136.09-22.22 136.09-5.83Q136.09-4.13 137.61-3.2 139.12-2.27 141.48-2.27 143.83-2.27 145.71-3.71L145.71-3.71Q146.3-4.17 146.69-4.74L146.69-4.74 146.69-17.97Q146.62-18.68 146.05-19.19L146.05-19.19Q145.3-19.82 144.48-19.87 143.66-19.92 143.66-20.37 143.66-20.83 144.05-20.92L144.05-20.92 149.64-22.53Q149.94-22.63 150.22-22.63 150.5-22.63 150.5-22.14L150.5-22.14 150.5-4.81Q150.62-3.74 151.11-3.27 151.6-2.81 152.69-2.81L152.69-2.81 154.11-2.91Q154.26-2.91 154.26-2.62 154.26-2.34 153.89-2.17L153.89-2.17 147.4 0.51Q147.1 0.66 146.9 0.66 146.69 0.66 146.69 0.05L146.69 0.05ZM172.49-21.62Q173.57-21.24 173.81-21.24 174.05-21.24 174.12-21.25 174.18-21.26 174.27-21.56L174.27-21.56 174.27-34.16Q174.27-35.18 173.15-35.57L173.15-35.57Q172.66-35.74 172.1-35.85 171.54-35.96 171.21-36.06 170.88-36.16 170.8-36.24 170.71-36.33 170.71-36.61 170.71-36.89 171.08-37.08L171.08-37.08 177.3-40.01Q177.59-40.16 177.67-40.16L177.67-40.16Q178.08-40.16 178.08-39.58L178.08-39.58 178.08-4.81Q178.21-3.74 178.69-3.27 179.18-2.81 180.28-2.81L180.28-2.81 181.7-2.91Q181.84-2.91 181.84-2.62 181.84-2.34 181.48-2.17L181.48-2.17 174.98 0.51Q174.69 0.66 174.48 0.66 174.27 0.66 174.27 0.05L174.27 0.05 174.27-2.17Q174.27-2.42 174.15-2.42L174.15-2.42Q173.98-2.42 172.13-1.32L172.13-1.32Q166.44 2.05 162.53-0.32L162.53-0.32Q159.41-2.22 158.31-6.35L158.31-6.35Q157.8-8.28 157.8-10.44 157.8-12.6 158.69-14.73 159.58-16.87 161.14-18.48L161.14-18.48Q164.58-22 169.44-22L169.44-22Q171.42-22 172.49-21.62ZM161.48-11.15Q161.48-7.45 163.53-4.68 165.58-1.9 169.25-1.9L169.25-1.9Q170.86-1.9 172.57-2.7 174.27-3.49 174.27-3.91L174.27-3.91 174.27-16.5Q174.27-16.97 173.64-17.6L173.64-17.6Q171.69-20.29 168.45-20.29 165.22-20.29 163.35-17.57 161.48-14.84 161.48-11.15ZM198.61-21.97L207.87-21.97Q208.13-21.9 208.13-21.63 208.13-21.36 208.09-21.28 208.04-21.19 207.85-21.13 207.67-21.07 207.34-21.02 207.01-20.97 206.3-20.84 205.6-20.7 205.03-19.85 204.47-18.99 203.84-17.48L203.84-17.48 192.36 10.96 190.78 14.33Q190.17 15.63 188.21 15.63L188.21 15.63Q187.36 15.63 186.85 15.06 186.33 14.5 186.33 13.73 186.33 12.96 186.71 12.61 187.09 12.26 187.6 12.04 188.11 11.82 188.66 11.63 189.21 11.45 189.9 10.8 190.58 10.16 190.7 9.84L190.7 9.84Q194.8 0.66 194.8 0.24 194.8-0.17 194.32-0.78L194.32-0.78 186.26-17.6Q185.36-20.07 183.16-20.78L183.16-20.78Q182.99-20.83 182.74-20.85L182.74-20.85Q181.72-20.95 181.72-21.46 181.72-21.97 182.3-21.97L182.3-21.97 193.17-21.97Q193.36-21.97 193.36-21.59 193.36-21.22 193.02-21.08 192.68-20.95 191.51-20.95L191.51-20.95Q189.63-20.95 189.63-19.48L189.63-19.48 189.85-18.9 196.17-5.35Q196.66-4.1 197.15-5.42L197.15-5.42Q197.2-5.54 197.76-7.01L197.76-7.01Q201.08-15.43 201.48-16.75 201.88-18.07 201.88-18.73 201.88-19.38 201.19-20.12 200.49-20.85 199.28-20.85 198.08-20.85 198.08-21.56L198.08-21.56Q198.08-21.97 198.61-21.97L198.61-21.97Z" opacity="1" transform="matrix(1,0,0,1,0,0)" fill="#ffffff" class="wordmark-text-0" data-fill-palette-color="primary" id="text-0"></path></svg></g></svg></g></svg></g></svg></g><g transform="matrix(1,0,0,1,420.75140979224216,0)"><svg viewBox="0 0 140.91817702070873 147.70585884578998" height="147.70585884578998" width="140.91817702070873"><g><svg xmlns="http://www.w3.org/2000/svg" xmlns:xlink="http://www.w3.org/1999/xlink" version="1.1" x="0" y="0" viewBox="0 0 95.5 100.1" style="enable-background:new 0 0 95.4 100;" xml:space="preserve" id="icon-0" width="140.91817702070873" height="147.70585884578998" class="icon-icon-0" data-fill-palette-color="accent"><path d="M22.7 81.7H11.4C7.6 81.7 4.6 78.6 4.6 74.9V43C4.6 41.7 3.6 40.7 2.3 40.7S0 41.8 0 43V74.8C0 80.3 3.9 84.9 9.1 86V97.6C9.1 98.9 10.1 99.9 11.4 99.9S13.7 98.9 13.7 97.6V86.2H22.8C24.1 86.2 25.1 85.2 25.1 83.9S24 81.7 22.7 81.7M39.8 23.7C44.2 23.7 47.8 27.3 47.8 31.7S44.2 39.7 39.8 39.7 31.8 36.1 31.8 31.7 35.4 23.7 39.8 23.7M93.1 61.2H34.2C32.9 61.2 31.9 62.2 31.9 63.5S32.9 65.8 34.2 65.8H61.4L61.3 97.8C61.3 99.1 62.3 100.1 63.6 100.1S65.9 99.1 65.9 97.8L66 65.8H93.2C94.5 65.8 95.5 64.8 95.5 63.5 95.4 62.2 94.4 61.2 93.1 61.2M56.8 49.8H56.1L50.8 44.5C50.4 44.1 49.6 44.1 49.2 44.5S48.8 45.7 49.2 46.1L52.9 49.8H44.8L32.4 39.3C31.4 38.4 31 38 30.1 37.5 26.7 35.9 22.6 37.4 21 40.8L7.7 69.7C6.1 73.1 7.6 77.2 11 78.8 11.9 79.2 12.8 79.4 13.7 79.4H30L20.7 92.9C19.3 95 19.8 97.8 21.9 99.2S26.8 100.1 28.2 98L42.4 77.4C42.7 76.9 43 76.4 43.1 75.8 43.2 75.5 43.2 75.2 43.2 74.9V74.6C43.2 74.4 43.2 74.2 43.1 74 43.1 73.8 43 73.7 43 73.6S42.9 73.3 42.9 73.2C42.8 73.1 42.8 72.9 42.7 72.8S42.6 72.6 42.5 72.4C42.4 72.3 42.3 72.1 42.2 72L41.9 71.7C41.7 71.5 41.6 71.4 41.4 71.3 41.3 71.3 41.3 71.2 41.2 71.2 40.7 70.9 40.2 70.6 39.6 70.5 39.3 70.4 39 70.4 38.7 70.4H22.4L31.6 50.6 40.2 57.9C41.1 58.6 42.1 59 43.1 59H56.7C59.2 59 61.2 57 61.2 54.5 61.4 51.9 59.3 49.8 56.8 49.8M88.6 59.1H72.7C71.4 59.1 70.4 58.1 70.4 56.8S71.4 54.5 72.7 54.5H88.6C89.9 54.5 90.9 55.5 90.9 56.8S89.9 59.1 88.6 59.1M90.9 52.3H77.3C76 52.3 75 51.3 75 50S76 47.7 77.3 47.7H90.9C92.2 47.7 93.2 48.7 93.2 50S92.2 52.3 90.9 52.3M72.7 22.7C66.4 22.7 61.3 17.6 61.3 11.3S66.5 0 72.7 0 84.1 5.1 84.1 11.4 79 22.7 72.7 22.7M72.7 4.5C68.9 4.5 65.9 7.6 65.9 11.3S69 18.1 72.7 18.1 79.5 15 79.5 11.3 76.5 4.5 72.7 4.5M72.7 12.5H68.2C67.6 12.5 67.1 12 67.1 11.4S67.6 10.3 68.2 10.3H71.6V6.8C71.6 6.2 72.1 5.7 72.7 5.7S73.8 6.2 73.8 6.8V11.3C73.9 12 73.4 12.5 72.7 12.5" fill="#ffffff" data-fill-palette-color="accent"></path></svg></g></svg></g></svg></g><defs></defs></svg><rect width="395.52" height="104.01243482343345" fill="none" stroke="none" visibility="hidden"></rect></g></svg></g></svg>