<svg xmlns="http://www.w3.org/2000/svg" version="1.1" xmlns:xlink="http://www.w3.org/1999/xlink" xmlns:svgjs="http://svgjs.dev/svgjs" width="1500" height="1500" viewBox="0 0 1500 1500"><rect width="1500" height="1500" fill="#000000"></rect><g transform="matrix(0.6666666666666666,0,0,0.6666666666666666,249.39393939393938,446.35239440165003)"><svg viewBox="0 0 396 240" data-background-color="#ffffff" preserveAspectRatio="xMidYMid meet" height="909" width="1500" xmlns="http://www.w3.org/2000/svg" xmlns:xlink="http://www.w3.org/1999/xlink"><g id="tight-bounds" transform="matrix(1,0,0,1,0.2400000000000091,0.2564774646930488)"><svg viewBox="0 0 395.52 239.4870450706139" height="239.4870450706139" width="395.52"><g><svg viewBox="0 0 397.4975999999999 240.68448029596695" height="239.4870450706139" width="395.52"><g><rect width="397.4975999999999" height="7.37184774397965" x="0" y="132.26960975771067" fill="#ffffff" opacity="1" stroke-width="0" stroke="transparent" fill-opacity="1" class="rect-yte-0" data-fill-palette-color="secondary" rx="1%" id="yte-0" data-palette-color="#233565"></rect></g><g transform="matrix(1,0,0,1,0.9887999999999693,158.93948824509255)"><svg viewBox="0 0 395.52 81.7449920508744" height="81.7449920508744" width="395.52"><g id="textblocktransform"><svg viewBox="0 0 395.52 81.7449920508744" height="81.7449920508744" width="395.52" id="textblock"><g><svg viewBox="0 0 395.52 81.7449920508744" height="81.7449920508744" width="395.52"><g transform="matrix(1,0,0,1,0,0)"><svg width="395.52" viewBox="2.25 -39 251.58 52" height="81.7449920508744" data-palette-color="#000000"><path d="M2.25-12.5L2.25-12.5Q2.25-9 3.59-6.04 4.93-3.08 7.53-1.29 10.13 0.5 13.9 0.5L13.9 0.5Q17.07 0.5 19.3-0.6 21.53-1.7 22.93-3.64 24.33-5.58 25.03-8.13L25.03-8.13Q25.1-8.4 25-8.53 24.9-8.65 24.53-8.65L24.53-8.65 23.08-8.65Q22.7-8.65 22.6-8.49 22.5-8.33 22.4-8.05L22.4-8.05Q21.4-5.3 19.44-3.63 17.48-1.95 14.5-1.95L14.5-1.95Q11.93-1.95 10.34-3.39 8.75-4.83 8.03-7.2 7.3-9.58 7.3-12.33L7.3-12.33Q7.3-12.75 7.51-12.9 7.73-13.05 8.13-13.05L8.13-13.05 24.2-13.05Q24.73-13.05 24.91-13.16 25.1-13.28 25.1-13.78L25.1-13.78Q25.1-15.55 24.75-17.36 24.4-19.18 23.63-20.81 22.85-22.45 21.59-23.74 20.33-25.03 18.51-25.76 16.7-26.5 14.25-26.5L14.25-26.5Q10.23-26.5 7.56-24.66 4.9-22.83 3.58-19.66 2.25-16.5 2.25-12.5ZM19.4-15.2L8.1-15.2Q7.65-15.2 7.53-15.33 7.4-15.45 7.4-15.83L7.4-15.83Q7.4-17.8 8.15-19.75 8.9-21.7 10.43-23 11.95-24.3 14.25-24.3L14.25-24.3Q15.78-24.3 16.88-23.43 17.98-22.55 18.7-21.19 19.43-19.83 19.78-18.34 20.13-16.85 20.13-15.6L20.13-15.6Q20.13-15.35 20.01-15.28 19.9-15.2 19.4-15.2L19.4-15.2ZM29.9-6.15L29.9-6.15Q29.9-3 32.11-1.25 34.32 0.5 37.65 0.5L37.65 0.5Q40.3 0.5 41.85-0.16 43.4-0.83 44.2-1.68 45-2.53 45.4-3.08L45.4-3.08Q45.75-3.55 45.89-3.55 46.02-3.55 46.1-3.1L46.1-3.1Q46.2-2.5 46.51-1.65 46.82-0.8 47.73-0.15 48.65 0.5 50.52 0.5L50.52 0.5 50.55 0.5Q51.57 0.5 52.54 0.15 53.5-0.2 54.34-0.93 55.17-1.65 55.75-2.75L55.75-2.75Q55.92-3.15 55.6-3.35L55.6-3.35 54.7-3.9Q54.37-4.15 54.12-3.73L54.12-3.73Q53.47-2.7 52.87-2.4 52.27-2.1 51.75-2.1L51.75-2.1Q51.22-2.1 50.84-2.45 50.45-2.8 50.45-3.55L50.45-3.55 50.45-18.6Q50.45-20.63 49.81-22.44 49.17-24.25 47.36-25.38 45.55-26.5 42.05-26.5L42.05-26.5Q40.15-26.5 38.26-26.04 36.37-25.58 34.82-24.7 33.27-23.83 32.34-22.55 31.4-21.28 31.4-19.65L31.4-19.65Q31.4-18 32.3-17.38 33.2-16.75 34.35-16.75L34.35-16.75Q35.62-16.75 36.36-17.56 37.1-18.38 37.1-19.65L37.1-19.65Q37.1-20.63 36.75-21 36.4-21.38 36.05-21.59 35.7-21.8 35.7-22.25L35.7-22.25Q35.7-22.75 36.47-23.2 37.25-23.65 38.47-23.93 39.7-24.2 41.05-24.2L41.05-24.2Q43.05-24.2 44.11-23.44 45.17-22.68 45.56-21.35 45.95-20.03 45.95-18.35L45.95-18.35 45.95-15.6Q45.95-15.15 45.84-15.05 45.72-14.95 45.3-14.95L45.3-14.95 42.85-14.95Q38.55-14.95 35.67-13.73 32.8-12.5 31.35-10.5 29.9-8.5 29.9-6.15ZM35-6.9L35-6.9Q35-8.83 35.75-10.2 36.5-11.58 38.22-12.31 39.95-13.05 42.85-13.05L42.85-13.05 45.45-13.05Q45.95-13.05 45.95-12.55L45.95-12.55 45.95-9.55Q45.95-6.15 44.2-4.23 42.45-2.3 39.9-2.3L39.9-2.3Q38.02-2.3 36.51-3.35 35-4.4 35-6.9ZM74.35-18.23L74.35-18.23Q74.47-17.85 74.56-17.68 74.65-17.5 75.17-17.5L75.17-17.5 76.57-17.5Q77-17.5 77.15-17.61 77.3-17.73 77.3-18.13L77.3-18.13 77.3-25.8Q77.3-26.5 76.65-26.5L76.65-26.5 75.52-26.5Q75.05-26.5 74.9-26.4 74.75-26.3 74.62-25.95L74.62-25.95 73.97-23.98Q73.77-23.3 73.68-23.4 73.6-23.5 73.2-23.9L73.2-23.9Q72.2-24.93 70.47-25.76 68.75-26.6 66.3-26.6L66.3-26.6Q64.17-26.6 62.41-25.74 60.65-24.88 59.6-23.24 58.55-21.6 58.55-19.25L58.55-19.25Q58.55-16.63 59.67-15.08 60.8-13.53 62.56-12.68 64.32-11.83 66.3-11.31 68.27-10.8 70.03-10.26 71.8-9.73 72.92-8.8 74.05-7.88 74.05-6.15L74.05-6.15Q74.05-4.25 72.63-3.13 71.22-2 68.6-2L68.6-2Q66.52-2 65-2.65 63.47-3.3 62.42-4.63 61.37-5.95 60.72-7.98L60.72-7.98Q60.62-8.28 60.48-8.46 60.35-8.65 59.92-8.65L59.92-8.65 58.4-8.65Q57.97-8.65 57.83-8.49 57.7-8.33 57.7-7.88L57.7-7.88 57.7-0.18Q57.7 0.2 57.82 0.35 57.95 0.5 58.32 0.5L58.32 0.5 59.47 0.5Q59.87 0.5 60.08 0.34 60.3 0.18 60.4-0.1L60.4-0.1 60.97-1.9Q61.15-2.4 61.37-2.39 61.6-2.38 62-2.02L62-2.02Q63.15-1.03 65.03-0.21 66.92 0.6 69.35 0.6L69.35 0.6Q71.77 0.6 73.78-0.36 75.8-1.33 77-3.16 78.2-5 78.2-7.6L78.2-7.6Q78.2-10.08 77.06-11.54 75.92-13 74.13-13.81 72.35-14.63 70.33-15.16 68.32-15.7 66.52-16.28 64.72-16.85 63.58-17.82 62.45-18.8 62.45-20.55L62.45-20.55Q62.45-22.13 63.53-23.09 64.62-24.05 66.6-24.05L66.6-24.05Q69.12-24.05 71.28-22.53 73.45-21 74.35-18.23ZM80.22 6.55L80.22 6.55Q80.22 8.22 80.96 9.7 81.69 11.18 83.07 12.09 84.44 13 86.37 13L86.37 13Q87.82 13 89.48 12.39 91.14 11.78 92.76 10.06 94.37 8.35 95.67 5.1L95.67 5.1 106.49-22.2Q106.74-22.8 106.89-23.03 107.04-23.25 107.89-23.25L107.89-23.25 109.94-23.25Q110.52-23.25 110.62-23.48 110.72-23.7 110.72-24.25L110.72-24.25 110.72-25.4Q110.72-25.83 110.54-25.91 110.37-26 109.94-26L109.94-26 100.99-26Q100.37-26 100.17-25.83 99.97-25.65 99.97-25L99.97-25 99.97-24.15Q99.97-23.65 100.11-23.45 100.24-23.25 100.79-23.25L100.79-23.25 102.59-23.25Q103.39-23.25 103.51-23.1 103.62-22.95 103.42-22.4L103.42-22.4 97.62-7.65Q97.29-6.78 97.12-6.33 96.94-5.88 96.74-5.88L96.74-5.88Q96.59-5.88 96.41-6.24 96.22-6.6 95.87-7.35L95.87-7.35 89.07-22.5Q88.82-23.03 88.99-23.14 89.17-23.25 89.94-23.25L89.94-23.25 92.29-23.25Q93.02-23.25 93.19-23.44 93.37-23.63 93.37-24.38L93.37-24.38 93.37-25Q93.37-25.65 93.21-25.83 93.04-26 92.44-26L92.44-26 80.49-26Q80.14-26 79.98-25.93 79.82-25.85 79.82-25.5L79.82-25.5 79.82-24.1Q79.82-23.58 79.98-23.41 80.14-23.25 80.69-23.25L80.69-23.25 82.84-23.25Q83.59-23.25 83.76-23.1 83.92-22.95 84.14-22.45L84.14-22.45 93.97-0.75Q94.32 0 94.33 0.39 94.34 0.78 94.04 1.55L94.04 1.55 93.47 3Q92.29 6 91.02 7.63 89.74 9.25 88.54 9.88 87.34 10.5 86.37 10.5L86.37 10.5Q85.14 10.5 84.41 9.83 83.67 9.15 83.67 8.3L83.67 8.3Q83.67 7.9 83.88 7.66 84.09 7.43 84.41 7.24 84.72 7.05 85.03 6.84 85.34 6.63 85.56 6.28 85.77 5.93 85.77 5.35L85.77 5.35Q85.77 4.17 85.08 3.54 84.39 2.9 83.27 2.9L83.27 2.9Q82.49 2.9 81.79 3.34 81.09 3.78 80.66 4.59 80.22 5.4 80.22 6.55ZM136.17-26.18L136.17-26.18Q136.22-25.55 136.27-25.4 136.31-25.25 136.99-25.25L136.99-25.25 138.09-25.25Q138.56-25.25 138.75-25.34 138.94-25.43 138.94-25.9L138.94-25.9 138.94-36.68Q138.94-37.18 138.83-37.34 138.72-37.5 138.24-37.5L138.24-37.5 136.64-37.5Q136.34-37.5 136.25-37.45 136.17-37.4 136.06-37.2L136.06-37.2 135.29-35.43Q135.02-34.75 134.72-34.77 134.42-34.8 133.99-35.18L133.99-35.18Q132.49-36.48 130.4-37.24 128.31-38 125.94-38L125.94-38Q123.49-38 121.32-37.39 119.14-36.77 117.48-35.5 115.82-34.23 114.88-32.3 113.94-30.38 113.94-27.75L113.94-27.75Q113.94-24.75 115.13-22.9 116.32-21.05 118.28-19.96 120.24-18.88 122.59-18.21 124.94-17.55 127.29-16.96 129.64-16.38 131.6-15.51 133.56-14.65 134.75-13.19 135.94-11.73 135.94-9.25L135.94-9.25Q135.94-7.53 134.98-5.8 134.02-4.08 131.93-2.94 129.84-1.8 126.44-1.8L126.44-1.8Q123.04-1.8 120.62-3.34 118.19-4.88 116.83-7.2 115.47-9.53 115.24-11.9L115.24-11.9Q115.22-12.33 115.08-12.54 114.94-12.75 114.44-12.75L114.44-12.75 113.39-12.75Q112.87-12.75 112.65-12.66 112.44-12.58 112.44-12.05L112.44-12.05 112.44-0.6Q112.44-0.05 112.63 0.1 112.82 0.25 113.39 0.25L113.39 0.25 114.17 0.25Q114.89 0.25 115.08 0.15 115.27 0.05 115.47-0.45L115.47-0.45 116.24-2.38Q116.54-3.13 116.77-3.18 116.99-3.23 117.54-2.73L117.54-2.73Q119.24-1.23 121.68-0.24 124.12 0.75 126.94 0.75L126.94 0.75Q131.22 0.75 134.24-0.6 137.27-1.95 138.85-4.48 140.44-7 140.44-10.5L140.44-10.5Q140.44-13.73 139.25-15.74 138.06-17.75 136.1-18.95 134.14-20.15 131.79-20.88 129.44-21.6 127.09-22.19 124.74-22.78 122.78-23.55 120.82-24.33 119.63-25.66 118.44-27 118.44-29.25L118.44-29.25Q118.44-31.85 120.27-33.65 122.09-35.45 126.44-35.45L126.44-35.45Q129.14-35.45 131.27-34.26 133.39-33.08 134.68-30.99 135.97-28.9 136.17-26.18ZM160.04-4.88L160.04-4.88Q160.16-5.2 160.05-5.33 159.94-5.45 159.64-5.55L159.64-5.55 158.84-5.83Q158.44-5.98 158.3-5.9 158.16-5.83 157.99-5.45L157.99-5.45Q157.34-4.03 156.47-3.26 155.61-2.5 154.54-2.5L154.54-2.5Q153.54-2.5 152.94-3.18 152.34-3.85 152.34-5.35L152.34-5.35 152.34-22.43Q152.34-23 152.59-23.13 152.84-23.25 153.36-23.25L153.36-23.25 158.86-23.25Q159.31-23.25 159.5-23.34 159.69-23.43 159.69-23.88L159.69-23.88 159.69-25.18Q159.69-25.7 159.53-25.85 159.36-26 158.86-26L158.86-26 153.31-26Q152.84-26 152.59-26.13 152.34-26.25 152.34-26.78L152.34-26.78 152.34-32.27Q152.34-33 151.69-33L151.69-33 150.34-33Q149.79-33 149.66-32.85 149.54-32.7 149.44-32.27L149.44-32.27Q148.94-30.1 148.51-28.83 148.09-27.55 147.54-26.95 146.99-26.35 146.14-26.18 145.29-26 143.94-26L143.94-26Q143.46-26 143.32-25.91 143.19-25.83 143.19-25.35L143.19-25.35 143.19-24Q143.19-23.5 143.36-23.38 143.54-23.25 144.06-23.25L144.06-23.25 147.04-23.25Q147.49-23.25 147.66-23.05 147.84-22.85 147.84-22.4L147.84-22.4 147.84-4.3Q147.84-2.25 149.01-0.83 150.19 0.6 152.89 0.6L152.89 0.6Q154.84 0.6 156.25-0.14 157.66-0.88 158.6-2.13 159.54-3.38 160.04-4.88ZM165.56-22.43L165.56-7.55Q165.56-4.88 166.26-3.09 166.96-1.3 168.72-0.4 170.49 0.5 173.66 0.5L173.66 0.5Q176.94 0.5 178.97-0.79 181.01-2.08 182.21-4.08L182.21-4.08Q182.49-4.53 182.65-4.38 182.81-4.23 182.81-3.98L182.81-3.98 182.81-0.95Q182.81-0.38 182.96-0.19 183.11 0 183.66 0L183.66 0 191.11 0Q191.61 0 191.71-0.18 191.81-0.35 191.81-0.85L191.81-0.85 191.81-2.15Q191.81-2.55 191.56-2.65 191.31-2.75 190.96-2.75L190.96-2.75 188.16-2.75Q187.59-2.75 187.45-2.9 187.31-3.05 187.31-3.6L187.31-3.6 187.31-25.25Q187.31-25.68 187.21-25.84 187.11-26 186.71-26L186.71-26 178.91-26Q178.53-26 178.42-25.85 178.31-25.7 178.31-25.3L178.31-25.3 178.31-23.73Q178.31-23.4 178.5-23.33 178.69-23.25 179.01-23.25L179.01-23.25 181.76-23.25Q182.31-23.25 182.56-23.13 182.81-23 182.81-22.4L182.81-22.4 182.81-11.85Q182.81-9.28 181.84-6.99 180.86-4.7 179.06-3.28 177.26-1.85 174.81-1.85L174.81-1.85Q172.34-1.85 171.2-3.59 170.06-5.33 170.06-8.1L170.06-8.1 170.06-25.23Q170.06-25.78 169.87-25.89 169.69-26 169.11-26L169.11-26 161.96-26Q161.41-26 161.24-25.84 161.06-25.68 161.06-25.1L161.06-25.1 161.06-23.95Q161.06-23.45 161.26-23.35 161.46-23.25 161.96-23.25L161.96-23.25 164.91-23.25Q165.36-23.25 165.46-23.08 165.56-22.9 165.56-22.43L165.56-22.43ZM199.93-13L199.93-13Q199.93-15.85 200.81-18.34 201.68-20.83 203.26-22.36 204.83-23.9 206.93-23.9L206.93-23.9Q209.21-23.9 210.87-22.36 212.53-20.83 213.43-18.34 214.33-15.85 214.33-13L214.33-13Q214.33-10.15 213.43-7.66 212.53-5.18 210.87-3.64 209.21-2.1 206.93-2.1L206.93-2.1Q204.83-2.1 203.26-3.64 201.68-5.18 200.81-7.66 199.93-10.15 199.93-13ZM194.93-13L194.93-13Q194.93-8.75 196.47-5.73 198.01-2.7 200.53-1.1 203.06 0.5 206.03 0.5L206.03 0.5Q208.63 0.5 210.43-0.76 212.23-2.02 213.68-4.33L213.68-4.33Q214.03-4.85 214.18-4.71 214.33-4.58 214.33-3.93L214.33-3.93 214.33-0.9Q214.33-0.35 214.48-0.18 214.63 0 215.18 0L215.18 0 222.68 0Q223.13 0 223.23-0.13 223.33-0.25 223.33-0.73L223.33-0.73 223.33-2.1Q223.33-2.58 223.17-2.66 223.01-2.75 222.53-2.75L222.53-2.75 219.71-2.75Q219.16-2.75 219-2.88 218.83-3 218.83-3.55L218.83-3.55 218.83-38.25Q218.83-38.75 218.58-38.88 218.33-39 217.86-39L217.86-39 210.41-39Q210.13-39 209.98-38.91 209.83-38.83 209.83-38.53L209.83-38.53 209.83-36.88Q209.83-36.55 209.91-36.4 209.98-36.25 210.28-36.25L210.28-36.25 213.53-36.25Q214.03-36.25 214.18-36.16 214.33-36.08 214.33-35.58L214.33-35.58 214.33-22.33Q214.33-21.33 214.25-21.24 214.16-21.15 213.88-21.63L213.88-21.63Q212.63-23.93 210.63-25.19 208.63-26.45 206.03-26.45L206.03-26.45Q203.06-26.45 200.53-24.86 198.01-23.28 196.47-20.26 194.93-17.25 194.93-13ZM223.33 6.55L223.33 6.55Q223.33 8.22 224.07 9.7 224.81 11.18 226.18 12.09 227.56 13 229.48 13L229.48 13Q230.93 13 232.59 12.39 234.25 11.78 235.87 10.06 237.48 8.35 238.78 5.1L238.78 5.1 249.61-22.2Q249.86-22.8 250-23.03 250.16-23.25 251-23.25L251-23.25 253.06-23.25Q253.63-23.25 253.73-23.48 253.83-23.7 253.83-24.25L253.83-24.25 253.83-25.4Q253.83-25.83 253.66-25.91 253.48-26 253.06-26L253.06-26 244.11-26Q243.48-26 243.28-25.83 243.08-25.65 243.08-25L243.08-25 243.08-24.15Q243.08-23.65 243.22-23.45 243.36-23.25 243.91-23.25L243.91-23.25 245.71-23.25Q246.5-23.25 246.62-23.1 246.73-22.95 246.53-22.4L246.53-22.4 240.73-7.65Q240.41-6.78 240.23-6.33 240.06-5.88 239.86-5.88L239.86-5.88Q239.71-5.88 239.52-6.24 239.33-6.6 238.98-7.35L238.98-7.35 232.18-22.5Q231.93-23.03 232.11-23.14 232.28-23.25 233.06-23.25L233.06-23.25 235.41-23.25Q236.13-23.25 236.31-23.44 236.48-23.63 236.48-24.38L236.48-24.38 236.48-25Q236.48-25.65 236.32-25.83 236.16-26 235.56-26L235.56-26 223.61-26Q223.25-26 223.09-25.93 222.93-25.85 222.93-25.5L222.93-25.5 222.93-24.1Q222.93-23.58 223.09-23.41 223.25-23.25 223.81-23.25L223.81-23.25 225.96-23.25Q226.71-23.25 226.87-23.1 227.03-22.95 227.25-22.45L227.25-22.45 237.08-0.75Q237.43 0 237.44 0.39 237.46 0.78 237.16 1.55L237.16 1.55 236.58 3Q235.41 6 234.13 7.63 232.86 9.25 231.66 9.88 230.46 10.5 229.48 10.5L229.48 10.5Q228.25 10.5 227.52 9.83 226.78 9.15 226.78 8.3L226.78 8.3Q226.78 7.9 226.99 7.66 227.21 7.43 227.52 7.24 227.83 7.05 228.14 6.84 228.46 6.63 228.67 6.28 228.88 5.93 228.88 5.35L228.88 5.35Q228.88 4.17 228.19 3.54 227.5 2.9 226.38 2.9L226.38 2.9Q225.61 2.9 224.91 3.34 224.21 3.78 223.77 4.59 223.33 5.4 223.33 6.55Z" opacity="1" transform="matrix(1,0,0,1,0,0)" fill="#ffffff" class="wordmark-text-0" data-fill-palette-color="primary" id="text-0"></path></svg></g></svg></g></svg></g></svg></g><g transform="matrix(1,0,0,1,134.26301049284575,0)"><svg viewBox="0 0 128.97157901430842 112.97157901430843" height="112.97157901430843" width="128.97157901430842"><g><svg xmlns="http://www.w3.org/2000/svg" data-name="outline cut copy" viewBox="16 16 480 480" x="7.999999999999993" y="0" height="112.97157901430843" width="112.97157901430843" class="icon-icon-0" data-fill-palette-color="accent" id="icon-0"><rect x="392" y="320" width="16" height="16" fill="#ffffff" data-fill-palette-color="accent"></rect><path d="M488 448V424A8 8 0 0 0 480 416H463L454.724 353.928 472 358.246V368H488V304H472V312H449.138L448.855 309.885A16.05 16.05 0 0 0 433 296H424V238.624A23.985 23.985 0 0 0 438.624 208H472A8 8 0 0 0 479.692 197.8L464 142.88V121.12L479.692 66.2A8 8 0 0 0 475.578 56.848L448 43.056V28A12.013 12.013 0 0 0 436 16H396A12.013 12.013 0 0 0 384 28V43.056L356.422 56.845A8 8 0 0 0 352.308 66.197L368 121.12V142.88L352.308 197.8A8 8 0 0 0 360 208H393.376A23.985 23.985 0 0 0 408 238.624V296H400A8 8 0 0 0 398.431 296.155L392 297.441V288H376V300.642L319.208 312H299.308L285.652 298.343A8 8 0 0 0 280 296H272A15.99 15.99 0 0 0 258.377 303.651L243.533 270.251A24.02 24.02 0 0 0 221.6 256H216A8 8 0 0 0 208 264V276A28 28 0 0 1 152 276V264A8 8 0 0 0 144 256H121.414A24.01 24.01 0 0 0 100.435 268.345L25.007 404.115A8 8 0 0 0 24 408V448A8 8 0 0 0 16 456V488A8 8 0 0 0 24 496H488A8 8 0 0 0 496 488V456A8 8 0 0 0 488 448M393.889 56H416V40H400V32H432V48A8 8 0 0 0 436.422 55.155L462.483 68.187 455.28 93.4 455.092 93.334A16 16 0 0 1 424 88H408A16 16 0 0 1 376.908 93.334L376.72 93.4 369.52 68.187ZM383.689 146.2A8 8 0 0 0 384 144V120A8 8 0 0 0 383.926 118.943 31.81 31.81 0 0 0 416 109.132 31.81 31.81 0 0 0 448.074 118.943 8 8 0 0 0 448 120V144A8 8 0 0 0 448.308 146.2L461.4 192H370.61ZM424 216A8 8 0 1 1 416 208 8.01 8.01 0 0 1 424 216M472 448H272V432H472ZM255.305 448L248.246 370.339 256 360V376A8 8 0 0 0 264 384V408H280V384A8 8 0 0 0 286.651 380.443L306.4 416H264A8 8 0 0 0 256 424V448ZM380.188 368.273L369.583 416H324.707L292.688 358.364A7.96 7.96 0 0 1 300.859 353.013L372.992 358.562A8 8 0 0 1 380.192 368.273ZM472 328V341.754L452.453 336.867 451.271 328ZM272 312H276.687L290.343 325.657A8 8 0 0 0 296 328H320A8 8 0 0 0 321.569 327.845L400.792 312H433L446.866 416H416V376H400V416H385.973L395.808 371.744A24 24 0 0 0 374.22 342.608L302.086 337.06A23.945 23.945 0 0 0 276.962 355.168L273.754 368H272ZM40 410.073L114.421 276.115A8 8 0 0 1 121.414 272H136V276A44 44 0 0 0 224 276V272.368A8 8 0 0 1 228.912 276.751L254.782 334.957 233.6 363.2A8 8 0 0 0 232.033 368.725L239.145 446.949A48.08 48.08 0 0 0 192 408H135.221L125.291 311.184 109.375 312.816 112.995 348.116 75.566 408H64V424H192A32.056 32.056 0 0 1 222.987 448H40ZM119.138 408H94.438L115.659 374.047ZM480 480H32V464H480Z" fill="#ffffff" data-fill-palette-color="accent"></path><path d="M232 224V136A8 8 0 0 0 224 128H168A32.036 32.036 0 0 0 136 160V161.376A23.992 23.992 0 0 0 104 184 23.985 23.985 0 0 0 81.7 216.846 24.013 24.013 0 1 0 110.3 231.154 24.04 24.04 0 0 0 128 208 23.9 23.9 0 0 0 136 206.624V248A8 8 0 0 0 144 256H200A32.036 32.036 0 0 0 232 224M168 144H215.321A48.02 48.02 0 0 1 152 181.265V160A16.02 16.02 0 0 1 168 144M88 248A8 8 0 1 1 96 240 8.01 8.01 0 0 1 88 248M104 216A8 8 0 1 1 112 208 8.01 8.01 0 0 1 104 216M128 192A8 8 0 1 1 136 184 8.01 8.01 0 0 1 128 192M152 197.966A63.89 63.89 0 0 0 216 178.266V224A16.02 16.02 0 0 1 200 240H152Z" fill="#ffffff" data-fill-palette-color="accent"></path></svg></g></svg></g><g><rect width="57.72989049284578" height="7.37184774397965" y="104.59973127032879" x="263.23458950715417" fill="#ffffff" data-fill-palette-color="secondary"></rect><rect width="57.72989049284578" height="7.37184774397965" y="104.59973127032879" x="76.53311999999997" fill="#ffffff" data-fill-palette-color="secondary"></rect></g></svg></g><defs></defs></svg><rect width="395.52" height="239.4870450706139" fill="none" stroke="none" visibility="hidden"></rect></g></svg></g></svg>